<?xml version="1.0" encoding="UTF-8" standalone="no"?>
<!DOCTYPE svg PUBLIC "-//W3C//DTD SVG 1.1//EN"
 "http://www.w3.org/Graphics/SVG/1.1/DTD/svg11.dtd">
<!-- Generated by graphviz version 9.0.0 (20230911.1827)
 -->
<!-- Title: G Pages: 1 -->
<svg width="1542pt" height="514pt"
 viewBox="0.00 0.00 1541.95 514.37" xmlns="http://www.w3.org/2000/svg" xmlns:xlink="http://www.w3.org/1999/xlink">
<g id="graph0" class="graph" transform="scale(1 1) rotate(0) translate(21.6 492.77)">
<title>G</title>
<polygon fill="#111111" stroke="none" points="-21.6,21.6 -21.6,-492.77 1520.35,-492.77 1520.35,21.6 -21.6,21.6"/>
<!-- main.js -->
<g id="node1" class="node">
<title>main.js</title>
<path fill="none" stroke="#c6c5fe" d="M52.08,-269.42C52.08,-269.42 8.17,-269.42 8.17,-269.42 4.08,-269.42 0,-265.33 0,-261.25 0,-261.25 0,-253.08 0,-253.08 0,-249 4.08,-244.92 8.17,-244.92 8.17,-244.92 52.08,-244.92 52.08,-244.92 56.17,-244.92 60.25,-249 60.25,-253.08 60.25,-253.08 60.25,-261.25 60.25,-261.25 60.25,-265.33 56.17,-269.42 52.08,-269.42"/>
<text text-anchor="middle" x="30.12" y="-252.12" font-family="Arial" font-size="14.00" fill="#c6c5fe">main.js</text>
</g>
<!-- services/commandLoopService.js -->
<g id="node2" class="node">
<title>services/commandLoopService.js</title>
<path fill="none" stroke="#c6c5fe" d="M319.33,-269.42C319.33,-269.42 104.42,-269.42 104.42,-269.42 100.33,-269.42 96.25,-265.33 96.25,-261.25 96.25,-261.25 96.25,-253.08 96.25,-253.08 96.25,-249 100.33,-244.92 104.42,-244.92 104.42,-244.92 319.33,-244.92 319.33,-244.92 323.42,-244.92 327.5,-249 327.5,-253.08 327.5,-253.08 327.5,-261.25 327.5,-261.25 327.5,-265.33 323.42,-269.42 319.33,-269.42"/>
<text text-anchor="middle" x="211.88" y="-252.12" font-family="Arial" font-size="14.00" fill="#c6c5fe">services/commandLoopService.js</text>
</g>
<!-- main.js&#45;&gt;services/commandLoopService.js -->
<g id="edge1" class="edge">
<title>main.js&#45;&gt;services/commandLoopService.js</title>
<path fill="none" stroke="#757575" d="M60.4,-257.17C67.61,-257.17 75.79,-257.17 84.52,-257.17"/>
<polygon fill="#757575" stroke="#757575" points="84.33,-260.67 94.33,-257.17 84.33,-253.67 84.33,-260.67"/>
</g>
<!-- services/commandService.js -->
<g id="node3" class="node">
<title>services/commandService.js</title>
<path fill="none" stroke="#c6c5fe" d="M553.58,-269.42C553.58,-269.42 371.67,-269.42 371.67,-269.42 367.58,-269.42 363.5,-265.33 363.5,-261.25 363.5,-261.25 363.5,-253.08 363.5,-253.08 363.5,-249 367.58,-244.92 371.67,-244.92 371.67,-244.92 553.58,-244.92 553.58,-244.92 557.67,-244.92 561.75,-249 561.75,-253.08 561.75,-253.08 561.75,-261.25 561.75,-261.25 561.75,-265.33 557.67,-269.42 553.58,-269.42"/>
<text text-anchor="middle" x="462.62" y="-252.12" font-family="Arial" font-size="14.00" fill="#c6c5fe">services/commandService.js</text>
</g>
<!-- services/commandLoopService.js&#45;&gt;services/commandService.js -->
<g id="edge2" class="edge">
<title>services/commandLoopService.js&#45;&gt;services/commandService.js</title>
<path fill="none" stroke="#757575" d="M327.78,-257.17C335.83,-257.17 343.93,-257.17 351.95,-257.17"/>
<polygon fill="#757575" stroke="#757575" points="351.7,-260.67 361.7,-257.17 351.7,-253.67 351.7,-260.67"/>
</g>
<!-- services/consoleService.js -->
<g id="node4" class="node">
<title>services/consoleService.js</title>
<path fill="none" stroke="#cfffac" d="M1482.71,-94.42C1482.71,-94.42 1313.54,-94.42 1313.54,-94.42 1309.46,-94.42 1305.38,-90.33 1305.38,-86.25 1305.38,-86.25 1305.38,-78.08 1305.38,-78.08 1305.38,-74 1309.46,-69.92 1313.54,-69.92 1313.54,-69.92 1482.71,-69.92 1482.71,-69.92 1486.79,-69.92 1490.88,-74 1490.88,-78.08 1490.88,-78.08 1490.88,-86.25 1490.88,-86.25 1490.88,-90.33 1486.79,-94.42 1482.71,-94.42"/>
<text text-anchor="middle" x="1398.12" y="-77.12" font-family="Arial" font-size="14.00" fill="#cfffac">services/consoleService.js</text>
</g>
<!-- services/commandLoopService.js&#45;&gt;services/consoleService.js -->
<g id="edge3" class="edge">
<title>services/commandLoopService.js&#45;&gt;services/consoleService.js</title>
<path fill="none" stroke="#757575" d="M218.26,-244.45C234.29,-208.31 285.5,-104.6 363.5,-58.17 498.13,21.97 555.33,-5.17 712,-5.17 712,-5.17 712,-5.17 955.38,-5.17 1092.42,-5.17 1127.28,-14.46 1261.5,-42.17 1291.03,-48.26 1323.44,-57.72 1349.18,-65.9"/>
<polygon fill="#757575" stroke="#757575" points="1348.1,-69.23 1358.69,-68.97 1350.25,-62.57 1348.1,-69.23"/>
</g>
<!-- services/contextService.js -->
<g id="node5" class="node">
<title>services/contextService.js</title>
<path fill="none" stroke="#c6c5fe" d="M1253.33,-172.42C1253.33,-172.42 1088.67,-172.42 1088.67,-172.42 1084.58,-172.42 1080.5,-168.33 1080.5,-164.25 1080.5,-164.25 1080.5,-156.08 1080.5,-156.08 1080.5,-152 1084.58,-147.92 1088.67,-147.92 1088.67,-147.92 1253.33,-147.92 1253.33,-147.92 1257.42,-147.92 1261.5,-152 1261.5,-156.08 1261.5,-156.08 1261.5,-164.25 1261.5,-164.25 1261.5,-168.33 1257.42,-172.42 1253.33,-172.42"/>
<text text-anchor="middle" x="1171" y="-155.12" font-family="Arial" font-size="14.00" fill="#c6c5fe">services/contextService.js</text>
</g>
<!-- services/commandLoopService.js&#45;&gt;services/contextService.js -->
<g id="edge4" class="edge">
<title>services/commandLoopService.js&#45;&gt;services/contextService.js</title>
<path fill="none" stroke="#757575" d="M261.99,-244.46C334.78,-226.17 475.8,-192.8 597.75,-176.17 715.35,-160.13 745.63,-162.95 864.25,-159.17 932.41,-156.99 1009.16,-157.25 1068.71,-158.05"/>
<polygon fill="#757575" stroke="#757575" points="1068.44,-161.55 1078.49,-158.19 1068.54,-154.55 1068.44,-161.55"/>
</g>
<!-- services/envService.js -->
<g id="node6" class="node">
<title>services/envService.js</title>
<path fill="none" stroke="#cfffac" d="M1468.83,-235.42C1468.83,-235.42 1327.42,-235.42 1327.42,-235.42 1323.33,-235.42 1319.25,-231.33 1319.25,-227.25 1319.25,-227.25 1319.25,-219.08 1319.25,-219.08 1319.25,-215 1323.33,-210.92 1327.42,-210.92 1327.42,-210.92 1468.83,-210.92 1468.83,-210.92 1472.92,-210.92 1477,-215 1477,-219.08 1477,-219.08 1477,-227.25 1477,-227.25 1477,-231.33 1472.92,-235.42 1468.83,-235.42"/>
<text text-anchor="middle" x="1398.12" y="-218.12" font-family="Arial" font-size="14.00" fill="#cfffac">services/envService.js</text>
</g>
<!-- services/commandLoopService.js&#45;&gt;services/envService.js -->
<g id="edge5" class="edge">
<title>services/commandLoopService.js&#45;&gt;services/envService.js</title>
<path fill="none" stroke="#757575" d="M252.69,-269.84C282.79,-278.85 325.32,-290.33 363.5,-296.17 662.9,-341.91 742.17,-339.21 1044.5,-321.17 1141.46,-315.38 1168.81,-324.21 1261.5,-295.17 1301.2,-282.73 1342.9,-258.7 1369.41,-241.83"/>
<polygon fill="#757575" stroke="#757575" points="1371.02,-244.95 1377.52,-236.58 1367.22,-239.08 1371.02,-244.95"/>
</g>
<!-- services/inputModeService.js -->
<g id="node7" class="node">
<title>services/inputModeService.js</title>
<path fill="none" stroke="#cfffac" d="M1490.58,-407.42C1490.58,-407.42 1305.67,-407.42 1305.67,-407.42 1301.58,-407.42 1297.5,-403.33 1297.5,-399.25 1297.5,-399.25 1297.5,-391.08 1297.5,-391.08 1297.5,-387 1301.58,-382.92 1305.67,-382.92 1305.67,-382.92 1490.58,-382.92 1490.58,-382.92 1494.67,-382.92 1498.75,-387 1498.75,-391.08 1498.75,-391.08 1498.75,-399.25 1498.75,-399.25 1498.75,-403.33 1494.67,-407.42 1490.58,-407.42"/>
<text text-anchor="middle" x="1398.12" y="-390.12" font-family="Arial" font-size="14.00" fill="#cfffac">services/inputModeService.js</text>
</g>
<!-- services/commandLoopService.js&#45;&gt;services/inputModeService.js -->
<g id="edge6" class="edge">
<title>services/commandLoopService.js&#45;&gt;services/inputModeService.js</title>
<path fill="none" stroke="#757575" d="M229.02,-269.91C289.04,-315.98 506.46,-471.17 712,-471.17 712,-471.17 712,-471.17 955.38,-471.17 1096.36,-471.17 1259.04,-433.1 1342.1,-410.85"/>
<polygon fill="#757575" stroke="#757575" points="1342.84,-414.28 1351.58,-408.28 1341.01,-407.52 1342.84,-414.28"/>
</g>
<!-- services/llmService.js -->
<g id="node8" class="node">
<title>services/llmService.js</title>
<path fill="none" stroke="#c6c5fe" d="M1022.83,-95.42C1022.83,-95.42 885.92,-95.42 885.92,-95.42 881.83,-95.42 877.75,-91.33 877.75,-87.25 877.75,-87.25 877.75,-79.08 877.75,-79.08 877.75,-75 881.83,-70.92 885.92,-70.92 885.92,-70.92 1022.83,-70.92 1022.83,-70.92 1026.92,-70.92 1031,-75 1031,-79.08 1031,-79.08 1031,-87.25 1031,-87.25 1031,-91.33 1026.92,-95.42 1022.83,-95.42"/>
<text text-anchor="middle" x="954.38" y="-78.12" font-family="Arial" font-size="14.00" fill="#c6c5fe">services/llmService.js</text>
</g>
<!-- services/commandLoopService.js&#45;&gt;services/llmService.js -->
<g id="edge7" class="edge">
<title>services/commandLoopService.js&#45;&gt;services/llmService.js</title>
<path fill="none" stroke="#757575" d="M220.79,-244.58C240.53,-214.52 295.26,-138.85 363.5,-109.17 531.51,-36.08 752.45,-52.37 870.52,-68.87"/>
<polygon fill="#757575" stroke="#757575" points="869.73,-72.29 880.12,-70.25 870.72,-65.36 869.73,-72.29"/>
</g>
<!-- services/promptService.js -->
<g id="node9" class="node">
<title>services/promptService.js</title>
<path fill="none" stroke="#c6c5fe" d="M1036.33,-289.42C1036.33,-289.42 872.42,-289.42 872.42,-289.42 868.33,-289.42 864.25,-285.33 864.25,-281.25 864.25,-281.25 864.25,-273.08 864.25,-273.08 864.25,-269 868.33,-264.92 872.42,-264.92 872.42,-264.92 1036.33,-264.92 1036.33,-264.92 1040.42,-264.92 1044.5,-269 1044.5,-273.08 1044.5,-273.08 1044.5,-281.25 1044.5,-281.25 1044.5,-285.33 1040.42,-289.42 1036.33,-289.42"/>
<text text-anchor="middle" x="954.38" y="-272.12" font-family="Arial" font-size="14.00" fill="#c6c5fe">services/promptService.js</text>
</g>
<!-- services/commandLoopService.js&#45;&gt;services/promptService.js -->
<g id="edge8" class="edge">
<title>services/commandLoopService.js&#45;&gt;services/promptService.js</title>
<path fill="none" stroke="#757575" d="M290.46,-269.88C313.87,-273.21 339.67,-276.36 363.5,-278.17 534.71,-291.15 734.69,-286.7 852.3,-282.08"/>
<polygon fill="#757575" stroke="#757575" points="852.41,-285.58 862.26,-281.68 852.13,-278.58 852.41,-285.58"/>
</g>
<!-- services/commandService.js&#45;&gt;services/consoleService.js -->
<g id="edge9" class="edge">
<title>services/commandService.js&#45;&gt;services/consoleService.js</title>
<path fill="none" stroke="#757575" d="M481.2,-244.52C535.08,-206.68 703.98,-95.01 864.25,-62.17 1022.85,-29.67 1213.43,-50.9 1318.29,-67.62"/>
<polygon fill="#757575" stroke="#757575" points="1317.48,-71.04 1327.91,-69.19 1318.6,-64.13 1317.48,-71.04"/>
</g>
<!-- services/commandService.js&#45;&gt;services/contextService.js -->
<g id="edge10" class="edge">
<title>services/commandService.js&#45;&gt;services/contextService.js</title>
<path fill="none" stroke="#757575" d="M499.65,-244.49C526.42,-235.48 564,-223.68 597.75,-216.17 760.17,-179.99 953.71,-167.18 1068.97,-162.65"/>
<polygon fill="#757575" stroke="#757575" points="1068.85,-166.16 1078.71,-162.28 1068.59,-159.16 1068.85,-166.16"/>
</g>
<!-- services/commandService.js&#45;&gt;services/envService.js -->
<g id="edge11" class="edge">
<title>services/commandService.js&#45;&gt;services/envService.js</title>
<path fill="none" stroke="#757575" d="M526.18,-269.88C548.66,-274.04 574.27,-278.33 597.75,-281.17 890.71,-316.61 973.81,-329.86 1261.5,-264.17 1291.09,-257.41 1323.66,-247.64 1349.46,-239.34"/>
<polygon fill="#757575" stroke="#757575" points="1350.21,-242.77 1358.64,-236.35 1348.05,-236.12 1350.21,-242.77"/>
</g>
<!-- services/commandService.js&#45;&gt;services/inputModeService.js -->
<g id="edge12" class="edge">
<title>services/commandService.js&#45;&gt;services/inputModeService.js</title>
<path fill="none" stroke="#757575" d="M492.37,-269.88C519.15,-281.25 560.45,-297.55 597.75,-307.17 837.8,-369.08 1129.4,-387.45 1285.57,-392.88"/>
<polygon fill="#757575" stroke="#757575" points="1285.41,-396.38 1295.53,-393.22 1285.65,-389.38 1285.41,-396.38"/>
</g>
<!-- services/commandService.js&#45;&gt;services/promptService.js -->
<g id="edge13" class="edge">
<title>services/commandService.js&#45;&gt;services/promptService.js</title>
<path fill="none" stroke="#757575" d="M562.14,-261.19C646.53,-264.64 767.55,-269.58 852.59,-273.05"/>
<polygon fill="#757575" stroke="#757575" points="852.43,-276.55 862.56,-273.46 852.72,-269.55 852.43,-276.55"/>
</g>
<!-- services/shellCommandService.js -->
<g id="node10" class="node">
<title>services/shellCommandService.js</title>
<path fill="none" stroke="#c6c5fe" d="M820.08,-249.42C820.08,-249.42 605.92,-249.42 605.92,-249.42 601.83,-249.42 597.75,-245.33 597.75,-241.25 597.75,-241.25 597.75,-233.08 597.75,-233.08 597.75,-229 601.83,-224.92 605.92,-224.92 605.92,-224.92 820.08,-224.92 820.08,-224.92 824.17,-224.92 828.25,-229 828.25,-233.08 828.25,-233.08 828.25,-241.25 828.25,-241.25 828.25,-245.33 824.17,-249.42 820.08,-249.42"/>
<text text-anchor="middle" x="713" y="-232.12" font-family="Arial" font-size="14.00" fill="#c6c5fe">services/shellCommandService.js</text>
</g>
<!-- services/commandService.js&#45;&gt;services/shellCommandService.js -->
<g id="edge14" class="edge">
<title>services/commandService.js&#45;&gt;services/shellCommandService.js</title>
<path fill="none" stroke="#757575" d="M562.15,-249.23C570.06,-248.6 578.13,-247.95 586.2,-247.3"/>
<polygon fill="#757575" stroke="#757575" points="586.4,-250.79 596.09,-246.5 585.84,-243.81 586.4,-250.79"/>
</g>
<!-- services/contextService.js&#45;&gt;services/consoleService.js -->
<g id="edge15" class="edge">
<title>services/contextService.js&#45;&gt;services/consoleService.js</title>
<path fill="none" stroke="#757575" d="M1208.67,-147.46C1247.1,-134.15 1307.62,-113.18 1349.67,-98.61"/>
<polygon fill="#757575" stroke="#757575" points="1350.74,-101.94 1359.04,-95.36 1348.44,-95.33 1350.74,-101.94"/>
</g>
<!-- services/contextService.js&#45;&gt;services/envService.js -->
<g id="edge16" class="edge">
<title>services/contextService.js&#45;&gt;services/envService.js</title>
<path fill="none" stroke="#757575" d="M1225.6,-172.85C1237.45,-175.8 1249.93,-179 1261.5,-182.17 1289.71,-189.89 1320.97,-199.29 1346.37,-207.13"/>
<polygon fill="#757575" stroke="#757575" points="1345.19,-210.43 1355.78,-210.05 1347.27,-203.75 1345.19,-210.43"/>
</g>
<!-- services/contextService.js&#45;&gt;services/inputModeService.js -->
<g id="edge17" class="edge">
<title>services/contextService.js&#45;&gt;services/inputModeService.js</title>
<path fill="none" stroke="#757575" d="M1245.14,-172.73C1250.96,-175.31 1256.51,-178.43 1261.5,-182.17 1287,-201.27 1280.72,-217.08 1297.5,-244.17 1326.5,-290.98 1362.51,-344.5 1382.32,-373.58"/>
<polygon fill="#757575" stroke="#757575" points="1379.23,-375.26 1387.76,-381.54 1385.01,-371.31 1379.23,-375.26"/>
</g>
<!-- services/llmService.js&#45;&gt;services/consoleService.js -->
<g id="edge18" class="edge">
<title>services/llmService.js&#45;&gt;services/consoleService.js</title>
<path fill="none" stroke="#757575" d="M1031.31,-82.99C1103.76,-82.83 1213.46,-82.58 1293.83,-82.4"/>
<polygon fill="#757575" stroke="#757575" points="1293.47,-85.9 1303.46,-82.38 1293.45,-78.9 1293.47,-85.9"/>
</g>
<!-- services/llmService.js&#45;&gt;services/contextService.js -->
<g id="edge19" class="edge">
<title>services/llmService.js&#45;&gt;services/contextService.js</title>
<path fill="none" stroke="#757575" d="M1009.2,-95.83C1021.1,-99.45 1033.45,-103.89 1044.5,-109.17 1062.08,-117.56 1062.92,-125.78 1080.5,-134.17 1088.3,-137.89 1096.75,-141.19 1105.23,-144.08"/>
<polygon fill="#757575" stroke="#757575" points="1103.91,-147.33 1114.5,-147.07 1106.06,-140.67 1103.91,-147.33"/>
</g>
<!-- services/llmService.js&#45;&gt;services/envService.js -->
<g id="edge20" class="edge">
<title>services/llmService.js&#45;&gt;services/envService.js</title>
<path fill="none" stroke="#757575" d="M1031.31,-93.75C1107.89,-105.02 1220.47,-123.36 1261.5,-139.17 1303.21,-155.24 1346.23,-184.43 1372.33,-203.81"/>
<polygon fill="#757575" stroke="#757575" points="1370.17,-206.57 1380.26,-209.8 1374.39,-200.98 1370.17,-206.57"/>
</g>
<!-- services/promptService.js&#45;&gt;services/contextService.js -->
<g id="edge21" class="edge">
<title>services/promptService.js&#45;&gt;services/contextService.js</title>
<path fill="none" stroke="#757575" d="M973.81,-264.63C992.08,-252.05 1020.7,-231.9 1044.5,-213.17 1061.09,-200.11 1061.73,-191.84 1080.5,-182.17 1084.39,-180.16 1088.47,-178.33 1092.65,-176.67"/>
<polygon fill="#757575" stroke="#757575" points="1093.58,-180.06 1101.8,-173.37 1091.2,-173.47 1093.58,-180.06"/>
</g>
<!-- services/promptService.js&#45;&gt;services/envService.js -->
<g id="edge22" class="edge">
<title>services/promptService.js&#45;&gt;services/envService.js</title>
<path fill="none" stroke="#757575" d="M1044.77,-266.24C1121.42,-256.87 1231.29,-243.44 1307.9,-234.07"/>
<polygon fill="#757575" stroke="#757575" points="1307.95,-237.59 1317.45,-232.91 1307.1,-230.65 1307.95,-237.59"/>
</g>
<!-- services/promptService.js&#45;&gt;services/inputModeService.js -->
<g id="edge23" class="edge">
<title>services/promptService.js&#45;&gt;services/inputModeService.js</title>
<path fill="none" stroke="#757575" d="M1003.07,-289.91C1084.58,-311.68 1250.43,-355.98 1338.74,-379.57"/>
<polygon fill="#757575" stroke="#757575" points="1337.6,-382.89 1348.17,-382.09 1339.41,-376.13 1337.6,-382.89"/>
</g>
<!-- services/shellService.js -->
<g id="node11" class="node">
<title>services/shellService.js</title>
<path fill="none" stroke="#c6c5fe" d="M1245.08,-215.42C1245.08,-215.42 1096.92,-215.42 1096.92,-215.42 1092.83,-215.42 1088.75,-211.33 1088.75,-207.25 1088.75,-207.25 1088.75,-199.08 1088.75,-199.08 1088.75,-195 1092.83,-190.92 1096.92,-190.92 1096.92,-190.92 1245.08,-190.92 1245.08,-190.92 1249.17,-190.92 1253.25,-195 1253.25,-199.08 1253.25,-199.08 1253.25,-207.25 1253.25,-207.25 1253.25,-211.33 1249.17,-215.42 1245.08,-215.42"/>
<text text-anchor="middle" x="1171" y="-198.12" font-family="Arial" font-size="14.00" fill="#c6c5fe">services/shellService.js</text>
</g>
<!-- services/promptService.js&#45;&gt;services/shellService.js -->
<g id="edge24" class="edge">
<title>services/promptService.js&#45;&gt;services/shellService.js</title>
<path fill="none" stroke="#757575" d="M1007.57,-264.45C1019.91,-260.76 1032.85,-256.31 1044.5,-251.17 1061.65,-243.59 1063.35,-236.74 1080.5,-229.17 1088.81,-225.5 1097.79,-222.19 1106.73,-219.25"/>
<polygon fill="#757575" stroke="#757575" points="1107.63,-222.64 1116.14,-216.32 1105.55,-215.96 1107.63,-222.64"/>
</g>
<!-- services/shellCommandService.js&#45;&gt;services/contextService.js -->
<g id="edge25" class="edge">
<title>services/shellCommandService.js&#45;&gt;services/contextService.js</title>
<path fill="none" stroke="#757575" d="M789.3,-224.45C870.16,-210.8 998.44,-189.14 1083.41,-174.79"/>
<polygon fill="#757575" stroke="#757575" points="1083.82,-178.27 1093.1,-173.15 1082.65,-171.37 1083.82,-178.27"/>
</g>
<!-- services/shellCommandService.js&#45;&gt;services/inputModeService.js -->
<g id="edge26" class="edge">
<title>services/shellCommandService.js&#45;&gt;services/inputModeService.js</title>
<path fill="none" stroke="#757575" d="M741.48,-249.86C771.25,-263.25 820.36,-284.28 864.25,-298.17 1006.25,-343.1 1176.53,-369.56 1285.73,-383.21"/>
<polygon fill="#757575" stroke="#757575" points="1285.24,-386.68 1295.59,-384.43 1286.1,-379.73 1285.24,-386.68"/>
</g>
<!-- services/shellCommandService.js&#45;&gt;services/promptService.js -->
<g id="edge27" class="edge">
<title>services/shellCommandService.js&#45;&gt;services/promptService.js</title>
<path fill="none" stroke="#757575" d="M790.07,-249.88C814.17,-253.9 841,-258.39 865.84,-262.54"/>
<polygon fill="#757575" stroke="#757575" points="865.16,-265.97 875.6,-264.17 866.31,-259.07 865.16,-265.97"/>
</g>
<!-- services/shellCommandService.js&#45;&gt;services/shellService.js -->
<g id="edge28" class="edge">
<title>services/shellCommandService.js&#45;&gt;services/shellService.js</title>
<path fill="none" stroke="#757575" d="M828.73,-229.03C892.32,-224.48 972.8,-218.63 1044.5,-213.17 1055.01,-212.37 1066.02,-211.51 1076.96,-210.65"/>
<polygon fill="#757575" stroke="#757575" points="1077.12,-214.15 1086.81,-209.88 1076.57,-207.17 1077.12,-214.15"/>
</g>
<!-- services/shellService.js&#45;&gt;services/consoleService.js -->
<g id="edge29" class="edge">
<title>services/shellService.js&#45;&gt;services/consoleService.js</title>
<path fill="none" stroke="#757575" d="M1236.6,-190.5C1245.16,-187.9 1253.67,-184.81 1261.5,-181.17 1305.51,-160.67 1349.66,-124.94 1375.14,-102.48"/>
<polygon fill="#757575" stroke="#757575" points="1377.41,-105.14 1382.52,-95.86 1372.74,-99.93 1377.41,-105.14"/>
</g>
<!-- services/shellService.js&#45;&gt;services/envService.js -->
<g id="edge30" class="edge">
<title>services/shellService.js&#45;&gt;services/envService.js</title>
<path fill="none" stroke="#757575" d="M1253.59,-210.42C1271.12,-211.97 1289.74,-213.63 1307.55,-215.21"/>
<polygon fill="#757575" stroke="#757575" points="1307.04,-218.68 1317.31,-216.08 1307.66,-211.7 1307.04,-218.68"/>
</g>
</g>
</svg>
